<svg width="43" height="43" viewBox="0 0 43 43" fill="none" xmlns="http://www.w3.org/2000/svg">
<rect width="42.93" height="42.9288" rx="6.86861" fill="black"/>
<path d="M19 13V29" stroke="#7EE48C" stroke-width="1.5" stroke-linecap="round" stroke-linejoin="round" stroke-dasharray="5 5"/>
<path d="M28.5 21.5C28.5 20.837 28.7634 20.2011 29.2322 19.7322C29.7011 19.2634 30.337 19 31 19V18C31 14 30 13 26 13H16C12 13 11 14 11 18V18.5C11.663 18.5 12.2989 18.7634 12.7678 19.2322C13.2366 19.7011 13.5 20.337 13.5 21C13.5 21.663 13.2366 22.2989 12.7678 22.7678C12.2989 23.2366 11.663 23.5 11 23.5V24C11 28 12 29 16 29H26C30 29 31 28 31 24C30.337 24 29.7011 23.7366 29.2322 23.2678C28.7634 22.7989 28.5 22.163 28.5 21.5Z" stroke="white" stroke-width="1.5" stroke-linecap="round" stroke-linejoin="round"/>
</svg>
