<svg width="43" height="43" viewBox="0 0 43 43" fill="none" xmlns="http://www.w3.org/2000/svg">
<rect width="42.93" height="42.9288" rx="6.86861" fill="#252525"/>
<path d="M11 18.5H12C15 18.5 16 17.5 16 14.5V13.5M31 18.5H30C27 18.5 26 17.5 26 14.5V13.5M11 24.5H12C15 24.5 16 25.5 16 28.5V29.5M31 24.5H30C27 24.5 26 25.5 26 28.5V29.5" stroke="#7EE48C" stroke-width="1.5" stroke-miterlimit="10" stroke-linecap="round" stroke-linejoin="round"/>
<path d="M26 30H16C13 30 11 28.5 11 25V18C11 14.5 13 13 16 13H26C29 13 31 14.5 31 18V25C31 28.5 29 30 26 30Z" stroke="white" stroke-width="1.5" stroke-miterlimit="10" stroke-linecap="round" stroke-linejoin="round"/>
</svg>
