<svg width="34" height="34" viewBox="0 0 34 34" fill="none" xmlns="http://www.w3.org/2000/svg">
<path d="M11.3482 5.66634V2.83301M17.0007 5.66634V2.83301M22.6673 5.66634V2.83301M28.334 11.333H31.1673M28.334 16.9997H31.1673M28.334 22.6663H31.1673M22.6673 28.333V31.1663M17.0148 28.333V31.1663M11.3482 28.333V31.1663M2.83398 11.333H5.66732M2.83398 16.9997H5.66732M2.83398 22.6663H5.66732M14.8757 24.083H19.1257C22.6673 24.083 24.084 22.6663 24.084 19.1247V14.8747C24.084 11.333 22.6673 9.91634 19.1257 9.91634H14.8757C11.334 9.91634 9.91732 11.333 9.91732 14.8747V19.1247C9.91732 22.6663 11.334 24.083 14.8757 24.083Z" stroke="#7EE48C" stroke-width="1.5" stroke-linecap="round" stroke-linejoin="round"/>
<path d="M13.5993 28.3337H20.3993C26.066 28.3337 28.3327 26.067 28.3327 20.4003V13.6003C28.3327 7.93366 26.066 5.66699 20.3993 5.66699H13.5993C7.93268 5.66699 5.66602 7.93366 5.66602 13.6003V20.4003C5.66602 26.067 7.93268 28.3337 13.5993 28.3337Z" stroke="#F3F0F1" stroke-width="1.5" stroke-linecap="round" stroke-linejoin="round"/>
</svg>
