<svg width="26" height="20" viewBox="0 0 26 20" fill="none" xmlns="http://www.w3.org/2000/svg">
<path d="M22.0583 1.67897C24.9841 6.01122 26.429 10.8979 25.8889 16.5236C25.8866 16.5474 25.8743 16.5692 25.8549 16.5836C23.6392 18.222 21.4925 19.2164 19.376 19.8758C19.3595 19.8808 19.3418 19.8806 19.3255 19.875C19.3092 19.8695 19.295 19.8589 19.285 19.8448C18.796 19.1596 18.3517 18.4373 17.9624 17.6787C17.9401 17.634 17.9605 17.5802 18.0065 17.5626C18.7121 17.2948 19.3831 16.9739 20.0285 16.594C20.0793 16.564 20.0826 16.4906 20.0356 16.4554C19.8986 16.353 19.7629 16.2454 19.6331 16.1378C19.6088 16.1179 19.5761 16.1139 19.5486 16.1273C15.3585 18.0759 10.7685 18.0759 6.52886 16.1273C6.50134 16.1149 6.46863 16.1192 6.44499 16.1387C6.31546 16.2464 6.17945 16.353 6.04376 16.4554C5.99681 16.4906 6.00069 16.564 6.05186 16.594C6.69726 16.9668 7.36824 17.2949 8.0729 17.5639C8.11856 17.5815 8.14025 17.634 8.11759 17.6787C7.73676 18.4382 7.29246 19.1606 6.79441 19.8458C6.77271 19.8735 6.73709 19.8862 6.70341 19.8758C4.59687 19.2164 2.45019 18.222 0.234521 16.5836C0.216063 16.5692 0.202785 16.5464 0.200842 16.5226C-0.250581 11.6565 0.669429 6.72935 4.0279 1.67799C4.036 1.66462 4.0483 1.65418 4.06255 1.64798C5.71507 0.884197 7.48547 0.322283 9.33585 0.00137479C9.36952 -0.00384322 9.4032 0.0118108 9.42069 0.0418144C9.64932 0.449472 9.91065 0.972251 10.0875 1.39948C12.0379 1.09944 14.0188 1.09944 16.01 1.39948C16.1869 0.981383 16.4391 0.449472 16.6668 0.0418144C16.6749 0.0269299 16.6875 0.0150053 16.7027 0.00774297C16.7179 0.000480617 16.7351 -0.00174818 16.7516 0.00137479C18.603 0.323261 20.3734 0.885176 22.0246 1.64798C22.0392 1.65418 22.0511 1.66462 22.0583 1.67897ZM11.079 10.9312C11.0994 9.49262 10.058 8.30226 8.75068 8.30226C7.45405 8.30226 6.42265 9.48218 6.42265 10.9312C6.42265 12.3798 7.47445 13.5597 8.75068 13.5597C10.0476 13.5597 11.079 12.3798 11.079 10.9312ZM19.6872 10.9312C19.7076 9.49262 18.6661 8.30226 17.3591 8.30226C16.0622 8.30226 15.0308 9.48218 15.0308 10.9312C15.0308 12.3798 16.0826 13.5597 17.3591 13.5597C18.6661 13.5597 19.6872 12.3798 19.6872 10.9312Z" fill="#F3F0F1"/>
</svg>
