<svg width="30" height="20" viewBox="0 0 30 20" fill="none" xmlns="http://www.w3.org/2000/svg">
<path fill-rule="evenodd" clip-rule="evenodd" d="M16.7156 0.248102L25.9715 4.87601C26.3992 5.08987 26.4059 5.69791 25.983 5.92108L13.9618 12.2656C13.2915 12.6194 12.4918 12.6281 11.8139 12.2892L4.26627 8.51539C3.34677 8.14599 2.31865 8.82065 2.31865 9.83687C2.31865 10.6539 2.78027 11.4008 3.51104 11.7662L11.0781 15.5497C11.54 15.0794 12.1832 14.7877 12.8946 14.7877C13.5856 14.7877 14.2122 15.0629 14.6709 15.5098L24.096 10.5355C24.0702 10.39 24.0568 10.2403 24.0568 10.0875C24.0568 8.68141 25.1966 7.54161 26.6026 7.54161C28.0087 7.54161 29.1485 8.68141 29.1485 10.0875C29.1485 11.4935 28.0087 12.6333 26.6026 12.6333C25.9151 12.6333 25.2913 12.3609 24.8332 11.918L15.4028 16.8951C15.4276 17.0375 15.4405 17.184 15.4405 17.3335C15.4405 18.7396 14.3006 19.8794 12.8946 19.8794C11.4885 19.8794 10.3487 18.7396 10.3487 17.3335C10.3487 17.2035 10.3584 17.0757 10.3773 16.9509L2.70057 13.1126C1.50633 12.5155 0.751953 11.2949 0.751953 9.95968V9.21598C0.751953 8.1991 1.31475 7.26574 2.21409 6.79116L14.5677 0.271702C15.238 -0.0820509 16.0377 -0.0908383 16.7156 0.248102ZM12.8946 18.3127C13.4353 18.3127 13.8737 17.8743 13.8737 17.3335C13.8737 16.7928 13.4353 16.3544 12.8946 16.3544C12.3538 16.3544 11.9154 16.7928 11.9154 17.3335C11.9154 17.8743 12.3538 18.3127 12.8946 18.3127ZM27.5818 10.0875C27.5818 10.6283 27.1434 11.0667 26.6026 11.0667C26.0619 11.0667 25.6235 10.6283 25.6235 10.0875C25.6235 9.54667 26.0619 9.10828 26.6026 9.10828C27.1434 9.10828 27.5818 9.54667 27.5818 10.0875Z" fill="#F3F0F1"/>
</svg>
