<svg width="10" height="10" viewBox="0 0 10 10" fill="curentcolor" xmlns="http://www.w3.org/2000/svg">
<path d="M4.9 7.35C5.03883 7.35 5.15529 7.30296 5.24937 7.20888C5.34312 7.11513 5.39 6.99883 5.39 6.86V4.88775C5.39 4.74892 5.34312 4.63458 5.24937 4.54475C5.15529 4.45492 5.03883 4.41 4.9 4.41C4.76117 4.41 4.64487 4.45688 4.55112 4.55063C4.45704 4.64471 4.41 4.76117 4.41 4.9V6.87225C4.41 7.01108 4.45704 7.12542 4.55112 7.21525C4.64487 7.30508 4.76117 7.35 4.9 7.35ZM4.9 3.43C5.03883 3.43 5.15529 3.38296 5.24937 3.28888C5.34312 3.19513 5.39 3.07883 5.39 2.94C5.39 2.80117 5.34312 2.68471 5.24937 2.59063C5.15529 2.49688 5.03883 2.45 4.9 2.45C4.76117 2.45 4.64487 2.49688 4.55112 2.59063C4.45704 2.68471 4.41 2.80117 4.41 2.94C4.41 3.07883 4.45704 3.19513 4.55112 3.28888C4.64487 3.38296 4.76117 3.43 4.9 3.43ZM4.9 9.8C4.22217 9.8 3.58517 9.67129 2.989 9.41388C2.39283 9.15679 1.87425 8.80775 1.43325 8.36675C0.99225 7.92575 0.643207 7.40717 0.38612 6.811C0.128707 6.21483 0 5.57783 0 4.9C0 4.22217 0.128707 3.58517 0.38612 2.989C0.643207 2.39283 0.99225 1.87425 1.43325 1.43325C1.87425 0.99225 2.39283 0.643043 2.989 0.38563C3.58517 0.128543 4.22217 0 4.9 0C5.57783 0 6.21483 0.128543 6.811 0.38563C7.40717 0.643043 7.92575 0.99225 8.36675 1.43325C8.80775 1.87425 9.15679 2.39283 9.41388 2.989C9.67129 3.58517 9.8 4.22217 9.8 4.9C9.8 5.57783 9.67129 6.21483 9.41388 6.811C9.15679 7.40717 8.80775 7.92575 8.36675 8.36675C7.92575 8.80775 7.40717 9.15679 6.811 9.41388C6.21483 9.67129 5.57783 9.8 4.9 9.8ZM4.9 8.82C5.98617 8.82 6.91112 8.43829 7.67487 7.67487C8.43829 6.91112 8.82 5.98617 8.82 4.9C8.82 3.81383 8.43829 2.88888 7.67487 2.12513C6.91112 1.36171 5.98617 0.98 4.9 0.98C3.81383 0.98 2.88904 1.36171 2.12562 2.12513C1.36187 2.88888 0.98 3.81383 0.98 4.9C0.98 5.98617 1.36187 6.91112 2.12562 7.67487C2.88904 8.43829 3.81383 8.82 4.9 8.82Z" fill="curentcolor"/>
</svg>
