<svg width="20" height="20" viewBox="0 0 20 20" fill="none" xmlns="http://www.w3.org/2000/svg">
<path d="M6.6251 9.93972C6.6251 8.10994 8.1076 6.62621 9.93685 6.62621C11.7661 6.62621 13.2494 8.10994 13.2494 9.93972C13.2494 11.7695 11.7661 13.2532 9.93685 13.2532C8.1076 13.2532 6.6251 11.7695 6.6251 9.93972ZM4.8344 9.93972C4.8344 12.7586 7.11876 15.0436 9.93685 15.0436C12.7549 15.0436 15.0393 12.7586 15.0393 9.93972C15.0393 7.12081 12.7549 4.83579 9.93685 4.83579C7.11876 4.83579 4.8344 7.12081 4.8344 9.93972ZM14.0489 4.63342C14.0488 4.86933 14.1186 5.09996 14.2496 5.29617C14.3805 5.49237 14.5667 5.64532 14.7845 5.73569C15.0024 5.82605 15.2421 5.84977 15.4735 5.80384C15.7048 5.75791 15.9173 5.64439 16.0841 5.47765C16.251 5.3109 16.3646 5.09842 16.4107 4.86706C16.4568 4.63571 16.4333 4.39587 16.3431 4.17789C16.253 3.9599 16.1002 3.77355 15.9042 3.64241C15.7081 3.51127 15.4776 3.44123 15.2418 3.44113H15.2413C14.9252 3.44128 14.622 3.56693 14.3985 3.79048C14.1749 4.01403 14.0492 4.31721 14.0489 4.63342ZM5.92236 18.0304C4.95356 17.9863 4.42699 17.8249 4.07705 17.6885C3.61312 17.5078 3.2821 17.2926 2.93407 16.945C2.58605 16.5973 2.37061 16.2666 2.1908 15.8025C2.05438 15.4526 1.89301 14.9257 1.84897 13.9566C1.8008 12.9089 1.79118 12.5942 1.79118 9.9398C1.79118 7.28542 1.80159 6.97156 1.84897 5.92296C1.89309 4.95388 2.05566 4.42803 2.1908 4.07711C2.37141 3.61305 2.58652 3.28194 2.93407 2.93381C3.28163 2.58568 3.61232 2.37019 4.07705 2.19032C4.42683 2.05386 4.95356 1.89244 5.92236 1.84839C6.96979 1.8002 7.28443 1.79058 9.93685 1.79058C12.5893 1.79058 12.9042 1.801 13.9525 1.84839C14.9213 1.89252 15.447 2.05514 15.7978 2.19032C16.2618 2.37019 16.5928 2.58616 16.9408 2.93381C17.2888 3.28146 17.5035 3.61305 17.6841 4.07711C17.8205 4.42699 17.9819 4.95388 18.0259 5.92296C18.0741 6.97156 18.0837 7.28542 18.0837 9.9398C18.0837 12.5942 18.0741 12.908 18.0259 13.9566C17.9818 14.9257 17.8196 15.4524 17.6841 15.8025C17.5035 16.2666 17.2884 16.5977 16.9408 16.945C16.5933 17.2923 16.2618 17.5078 15.7978 17.6885C15.4481 17.8249 14.9213 17.9864 13.9525 18.0304C12.9051 18.0786 12.5905 18.0882 9.93685 18.0882C7.28323 18.0882 6.96947 18.0786 5.92236 18.0304ZM5.84009 0.0601949C4.78225 0.108383 4.0594 0.276165 3.42813 0.521875C2.77437 0.775616 2.22093 1.11603 1.66788 1.66836C1.11484 2.22069 0.775392 2.77517 0.521724 3.42912C0.276085 4.06097 0.108351 4.78363 0.0601776 5.84177C0.0112088 6.90158 0 7.24041 0 9.93972C0 12.639 0.0112088 12.9779 0.0601776 14.0377C0.108351 15.0959 0.276085 15.8185 0.521724 16.4503C0.775392 17.1039 1.11491 17.659 1.66788 18.2111C2.22085 18.7632 2.77437 19.1031 3.42813 19.3576C4.06059 19.6033 4.78225 19.7711 5.84009 19.8192C6.90015 19.8674 7.23832 19.8794 9.93685 19.8794C12.6354 19.8794 12.9741 19.8682 14.0336 19.8192C15.0915 19.7711 15.8139 19.6033 16.4456 19.3576C17.0989 19.1031 17.6528 18.7634 18.2058 18.2111C18.7589 17.6587 19.0976 17.1039 19.352 16.4503C19.5976 15.8185 19.7661 15.0958 19.8135 14.0377C19.8617 12.9771 19.8729 12.639 19.8729 9.93972C19.8729 7.24041 19.8617 6.90158 19.8135 5.84177C19.7654 4.78355 19.5976 4.06057 19.352 3.42912C19.0976 2.77557 18.758 2.22157 18.2058 1.66836C17.6537 1.11516 17.0989 0.775616 16.4464 0.521875C15.8139 0.276165 15.0915 0.107588 14.0344 0.0601949C12.9749 0.0120072 12.6362 0 9.93765 0C7.23912 0 6.90015 0.011212 5.84009 0.0601949Z" fill="#F3F0F1"/>
</svg>
