<svg width="123" height="21" viewBox="0 0 123 21" xmlns="http://www.w3.org/2000/svg">
<path d="M36.7272 16.2626V9.09365C37.727 7.17909 39.4076 6.24309 41.4072 6.24309C43.726 6.24309 44.896 7.47691 44.896 9.77438V16.2626H47.3636V9.6042C47.3636 6.45581 45.598 4.17962 42.0454 4.17962C39.6629 4.17962 37.7483 5.20072 36.7272 6.86V4.60508H34.2383V16.2626H36.7272Z" fill="curentcolor"/>
<path d="M56.8719 4.17962C54.7659 4.17962 52.5323 4.75399 51.0857 5.62617L51.9792 7.30673C53.3194 6.51963 54.6808 6.13672 56.4039 6.13672C59.4034 6.13672 60.935 7.26418 60.935 9.77438V10.6253C60.0203 9.49783 58.2334 8.54055 55.8508 8.54055C53.3406 8.54055 50.0008 9.56165 50.0008 12.6037C50.0008 15.667 53.3406 16.6881 55.8508 16.6881C58.2334 16.6881 60.0203 15.7308 60.935 14.6033V14.6246C60.935 15.1777 61.084 15.7521 61.3818 16.2626H63.9558C63.5729 15.5819 63.424 14.8799 63.424 14.0077V9.77438C63.424 6.11545 60.935 4.17962 56.8719 4.17962ZM60.9776 12.7951C60.0416 14.3906 58.0632 14.9011 56.3188 14.9011C54.7659 14.9011 52.4472 14.497 52.4472 12.6037C52.4472 10.7317 54.7659 10.3275 56.3188 10.3275C58.0632 10.3275 60.0416 10.8167 60.9776 12.4335V12.7951Z" fill="curentcolor"/>
<path d="M69.6129 16.2626V9.81693C70.4 7.62582 72.5273 6.54091 75.1225 6.54091V4.37107C72.7187 4.37107 70.5489 5.39217 69.6129 7.26418V4.60508H67.124V16.2626H69.6129Z" fill="curentcolor"/>
<path d="M82.7982 4.17962C80.6922 4.17962 78.4586 4.75399 77.012 5.62617L77.9055 7.30673C79.2457 6.51963 80.6071 6.13672 82.3302 6.13672C85.3297 6.13672 86.8613 7.26418 86.8613 9.77438V10.6253C85.9466 9.49783 84.1597 8.54055 81.7771 8.54055C79.2669 8.54055 75.9271 9.56165 75.9271 12.6037C75.9271 15.667 79.2669 16.6881 81.7771 16.6881C84.1597 16.6881 85.9466 15.7308 86.8613 14.6033V14.6246C86.8613 15.1777 87.0102 15.7521 87.3081 16.2626H89.8821C89.4992 15.5819 89.3503 14.8799 89.3503 14.0077V9.77438C89.3503 6.11545 86.8613 4.17962 82.7982 4.17962ZM86.9039 12.7951C85.9679 14.3906 83.9895 14.9011 82.2451 14.9011C80.6922 14.9011 78.3735 14.497 78.3735 12.6037C78.3735 10.7317 80.6922 10.3275 82.2451 10.3275C83.9895 10.3275 85.9679 10.8167 86.9039 12.4335V12.7951Z" fill="curentcolor"/>
<path d="M100.649 13.88C99.9471 14.263 99.2026 14.582 98.3304 14.582C97.1178 14.582 96.118 13.9439 96.118 12.6462V6.58345H101.202V4.60508H96.118V1.90342H93.6291V4.60508H91.3742V6.58345H93.6291V13.0504C93.6291 15.4755 95.4373 16.6881 97.7135 16.6881C99.0537 16.6881 100.351 16.2413 101.309 15.6031L100.649 13.88Z" fill="curentcolor"/>
<path d="M104.88 3.00961C105.795 3.00961 106.454 2.3927 106.454 1.62688C106.454 0.818508 105.795 0.244141 104.88 0.244141C103.965 0.244141 103.284 0.818508 103.284 1.62688C103.284 2.3927 103.965 3.00961 104.88 3.00961ZM106.135 4.60508H103.667V16.2626H106.135V4.60508Z" fill="curentcolor"/>
<path d="M123 4.60508H120.341L115.725 13.8588L111.109 4.60508H108.386L114.385 16.2626H117.023L123 4.60508Z" fill="curentcolor"/>
<path fill-rule="evenodd" clip-rule="evenodd" d="M2 0C0.895431 0 0 0.895433 0 2V18.267C0 19.3716 0.895433 20.267 2 20.267H18.267C19.3716 20.267 20.267 19.3716 20.267 18.267V2C20.267 0.895431 19.3716 0 18.267 0H2ZM10.3916 3.12291C10.3147 2.8191 9.88249 2.8191 9.80561 3.12291L8.80984 7.05824C8.7637 7.24059 8.56358 7.33684 8.39204 7.25916L4.69023 5.58299C4.40444 5.45359 4.13494 5.79108 4.32486 6.04052L6.78497 9.27162C6.89897 9.42135 6.84954 9.6376 6.68178 9.7231L3.06147 11.5683C2.78197 11.7107 2.87816 12.1316 3.19186 12.1388L7.25534 12.2326C7.44364 12.2369 7.58212 12.4104 7.54447 12.5947L6.73182 16.5717C6.66908 16.8788 7.05853 17.066 7.25979 16.8256L9.86675 13.7115C9.98756 13.5672 10.2097 13.5672 10.3305 13.7115L12.9374 16.8256C13.1387 17.066 13.5281 16.8788 13.4654 16.5717L12.6528 12.5947C12.6151 12.4104 12.7536 12.2369 12.9419 12.2326L17.0054 12.1388C17.3191 12.1316 17.4153 11.7107 17.1358 11.5683L13.5154 9.7231C13.3477 9.6376 13.2983 9.42135 13.4123 9.27162L15.8724 6.04052C16.0623 5.79108 15.7928 5.45359 15.507 5.58299L11.8052 7.25916C11.6336 7.33684 11.4335 7.24059 11.3874 7.05824L10.3916 3.12291Z" fill="curentcolor"/>
</svg>
