<svg width="40" height="40" viewBox="0 0 40 40" fill="none" xmlns="http://www.w3.org/2000/svg">
<path fill-rule="evenodd" clip-rule="evenodd" d="M3.94729 0C1.76726 0 0 1.76727 0 3.9473V36.0527C0 38.2327 1.76727 40 3.9473 40H36.0527C38.2327 40 40 38.2327 40 36.0527V3.94729C40 1.76726 38.2327 0 36.0527 0H3.94729ZM20.51 6.16456C20.3583 5.56494 19.5052 5.56494 19.3535 6.16456L17.3882 13.9315C17.2971 14.2914 16.9021 14.4814 16.5636 14.3281L9.25751 11.0199C8.69347 10.7645 8.16156 11.4306 8.53641 11.9229L13.3918 18.2999C13.6168 18.5954 13.5192 19.0223 13.1881 19.191L6.04291 22.8327C5.49129 23.1139 5.68112 23.9445 6.30027 23.9587L14.3201 24.1439C14.6918 24.1524 14.9651 24.4947 14.8908 24.8584L13.2869 32.7078C13.1631 33.3137 13.9317 33.6834 14.3289 33.2089L19.4741 27.0627C19.7126 26.7779 20.1509 26.7779 20.3894 27.0627L25.5346 33.2089C25.9318 33.6834 26.7004 33.3137 26.5766 32.7078L24.9727 24.8584C24.8984 24.4947 25.1717 24.1524 25.5434 24.1439L33.5632 23.9587C34.1824 23.9445 34.3722 23.1139 33.8206 22.8327L26.6754 19.191C26.3443 19.0223 26.2467 18.5954 26.4717 18.2999L31.3271 11.9229C31.7019 11.4306 31.17 10.7645 30.606 11.0199L23.2999 14.3281C22.9614 14.4814 22.5664 14.2914 22.4753 13.9315L20.51 6.16456Z" fill="curentcolor"/>
</svg>
