<svg width="37" height="20" viewBox="0 0 37 20" fill="none" xmlns="http://www.w3.org/2000/svg">
<path d="M21.1184 9.93972C21.1184 15.4252 16.597 19.8794 10.9957 19.8794C5.39452 19.8794 0.873047 15.4252 0.873047 9.93972C0.873047 4.45422 5.39452 0 10.9957 0C16.597 0 21.1184 4.45422 21.1184 9.93972ZM32.2084 9.93972C32.2084 15.0961 29.9364 19.287 27.1471 19.287C24.3577 19.287 22.0857 15.0961 22.0857 9.93972C22.0857 4.78335 24.3577 0.59243 27.1471 0.59243C29.9364 0.59243 32.2084 4.76141 32.2084 9.93972ZM36.7524 9.93972C36.7524 14.5695 35.9651 18.3216 34.9753 18.3216C33.9855 18.3216 33.1982 14.5695 33.1982 9.93972C33.1982 5.30996 33.9855 1.55788 34.9753 1.55788C35.9651 1.55788 36.7524 5.30996 36.7524 9.93972Z" fill="#F3F0F1"/>
</svg>
