<svg width="34" height="34" viewBox="0 0 34 34" fill="none" xmlns="http://www.w3.org/2000/svg">
<path d="M24.0374 20.4563C25.9782 20.7822 28.1174 20.4422 29.6191 19.4363C31.6166 18.1047 31.6166 15.923 29.6191 14.5913C28.1032 13.5855 25.9357 13.2455 23.9949 13.5855M9.91182 20.4563C7.97099 20.7822 5.83182 20.4422 4.33016 19.4363C2.33266 18.1047 2.33266 15.923 4.33016 14.5913C5.84599 13.5855 8.01349 13.2455 9.95432 13.5855M25.4966 10.143C25.4074 10.1288 25.3166 10.1288 25.2274 10.143C24.282 10.1088 23.3869 9.70839 22.7312 9.02634C22.0756 8.34429 21.7109 7.43406 21.7141 6.48801C21.7141 4.46217 23.3432 2.83301 25.3691 2.83301C26.3384 2.83301 27.2681 3.21809 27.9535 3.90353C28.639 4.58898 29.0241 5.51864 29.0241 6.48801C29.0215 7.43473 28.6529 8.34378 27.9954 9.02499C27.338 9.7062 26.4426 10.1068 25.4966 10.143ZM8.45266 10.143C8.53766 10.1288 8.63682 10.1288 8.72182 10.143C9.66726 10.1088 10.5624 9.70839 11.218 9.02634C11.8736 8.34429 12.2383 7.43406 12.2352 6.48801C12.2352 4.46217 10.606 2.83301 8.58016 2.83301C7.61079 2.83301 6.68113 3.21809 5.99568 3.90353C5.31024 4.58898 4.92516 5.51864 4.92516 6.48801C4.93932 8.47134 6.49766 10.0722 8.45266 10.143Z" stroke="#7EE48C" stroke-width="2" stroke-linecap="round" stroke-linejoin="round"/>
<path d="M16.9981 20.7241C16.909 20.7099 16.8181 20.7099 16.7289 20.7241C15.7835 20.6899 14.8884 20.2894 14.2328 19.6074C13.5772 18.9253 13.2124 18.0151 13.2156 17.0691C13.2156 15.0432 14.8448 13.4141 16.8706 13.4141C17.84 13.4141 18.7696 13.7991 19.4551 14.4846C20.1405 15.17 20.5256 16.0997 20.5256 17.0691C20.5114 19.0524 18.9531 20.6674 16.9981 20.7241ZM12.877 25.188C10.8795 26.5196 10.8795 28.7013 12.877 30.033C15.1437 31.5488 18.8554 31.5488 21.122 30.033C23.1195 28.7013 23.1195 26.5196 21.122 25.188C18.8695 23.6863 15.1437 23.6863 12.877 25.188Z" stroke="#F3F0F1" stroke-width="2" stroke-linecap="round" stroke-linejoin="round"/>
</svg>
