<svg width="36" height="36" viewBox="0 0 36 36" fill="none" xmlns="http://www.w3.org/2000/svg">
<path d="M24.7979 6.10415L8.64964 6.10415C6.77984 6.10415 5.25 7.63408 5.25 9.50398L5.25 18.8535" stroke="#7EE48C" stroke-width="2" stroke-linecap="round" stroke-linejoin="round"/>
<path d="M1.00195 14.6012L5.2515 19.7009L9.50106 14.6012M11.2009 29.9004L27.3492 29.9004C29.219 29.9004 30.7488 28.3705 30.7488 26.5006L30.7488 17.151" stroke="#7EE48C" stroke-width="2" stroke-linecap="round" stroke-linejoin="round"/>
<path d="M34.9991 21.4023L30.7496 16.3026L26.5 21.4023" stroke="#7EE48C" stroke-width="2" stroke-linecap="round" stroke-linejoin="round"/>
<path d="M11.2009 29.9003C11.2009 28.5477 10.6636 27.2506 9.70728 26.2942C8.75095 25.3378 7.45388 24.8005 6.10142 24.8005C4.74895 24.8005 3.45189 25.3378 2.49555 26.2942C1.53922 27.2506 1.00195 28.5477 1.00195 29.9003C1.00195 31.2528 1.53922 32.5499 2.49555 33.5063C3.45189 34.4627 4.74895 35 6.10142 35C7.45388 35 8.75095 34.4627 9.70728 33.5063C10.6636 32.5499 11.2009 31.2528 11.2009 29.9003Z" stroke="#F3F0F1" stroke-width="2" stroke-linecap="round" stroke-linejoin="round"/>
<path d="M34.9978 6.09947C34.9978 4.74694 34.4605 3.4498 33.5042 2.49341C32.5478 1.53702 31.2508 0.999729 29.8983 0.999729C28.5458 0.999729 27.2488 1.53702 26.2924 2.49341C25.3361 3.4498 24.7988 4.74694 24.7988 6.09947C24.7988 7.45201 25.3361 8.74915 26.2924 9.70554C27.2488 10.6619 28.5458 11.1992 29.8983 11.1992C31.2508 11.1992 32.5478 10.6619 33.5042 9.70554C34.4605 8.74915 34.9978 7.45201 34.9978 6.09947Z" stroke="#F3F0F1" stroke-width="2" stroke-linecap="round" stroke-linejoin="round"/>
</svg>
