<svg width="38" height="30" viewBox="0 0 38 30" fill="none" xmlns="http://www.w3.org/2000/svg">
<path d="M24.7314 3.02188L27.2158 7.9907C27.5506 8.67787 28.4492 9.32981 29.2068 9.47077L33.6999 10.2108C36.5719 10.6865 37.2414 12.7657 35.1799 14.8448L31.6736 18.3512C31.0921 18.9327 30.7574 20.078 30.9512 20.9061L31.9555 25.2406C32.7484 28.6588 30.9159 29.998 27.903 28.2007L23.6918 25.6987C22.9342 25.2406 21.6656 25.2406 20.9079 25.6987L16.6968 28.2007C13.6838 29.9803 11.8514 28.6588 12.6443 25.2406L13.6486 20.9061C13.8424 20.0956 13.5076 18.9503 12.9262 18.3512L9.41984 14.8448C7.35833 12.7833 8.02788 10.7042 10.8999 10.2108L15.3929 9.47077C16.1506 9.34743 17.0492 8.67787 17.384 7.9907L19.8683 3.02188C21.1898 0.326039 23.3747 0.326039 24.7314 3.02188Z" stroke="white" stroke-width="1.49999" stroke-linecap="round" stroke-linejoin="round"/>
<path d="M11.5718 2.67383H1M6.28592 27.3417H1M2.76197 15.0078H1" stroke="#7EE48C" stroke-width="1.49999" stroke-linecap="round" stroke-linejoin="round"/>
</svg>
