<svg width="17" height="17" viewBox="0 0 17 17" fill="none" xmlns="http://www.w3.org/2000/svg">
<path d="M8.5 13.375C11.1924 13.375 13.375 11.1924 13.375 8.5C13.375 5.80761 11.1924 3.625 8.5 3.625C5.80761 3.625 3.625 5.80761 3.625 8.5C3.625 11.1924 5.80761 13.375 8.5 13.375Z" stroke="white" stroke-width="1.2" stroke-linecap="round" stroke-linejoin="round"/>
<path d="M13.855 13.855L13.7575 13.7575M13.7575 3.2425L13.855 3.145L13.7575 3.2425ZM3.145 13.855L3.2425 13.7575L3.145 13.855ZM8.5 1.06V1V1.06ZM8.5 16V15.94V16ZM1.06 8.5H1H1.06ZM16 8.5H15.94H16ZM3.2425 3.2425L3.145 3.145L3.2425 3.2425Z" stroke="white" stroke-width="1.2" stroke-linecap="round" stroke-linejoin="round"/>
</svg>
