<svg width="25" height="20" viewBox="0 0 25 20" fill="none" xmlns="http://www.w3.org/2000/svg">
<path d="M23.9873 2.38807C23.2079 2.72379 22.3886 2.95757 21.5494 3.08363C21.9417 3.01632 22.519 2.30954 22.7488 2.02346C23.0979 1.59194 23.3639 1.09933 23.5334 0.57064C23.5334 0.531375 23.5726 0.475281 23.5334 0.447234C23.5136 0.436433 23.4915 0.430773 23.4689 0.430773C23.4464 0.430773 23.4243 0.436433 23.4045 0.447234C22.4933 0.941094 21.5236 1.31802 20.5182 1.5691C20.4832 1.57982 20.4459 1.58078 20.4104 1.57188C20.3748 1.56299 20.3424 1.54458 20.3165 1.51862C20.2382 1.42535 20.154 1.33729 20.0643 1.25498C19.6542 0.887259 19.189 0.586295 18.6856 0.363094C18.0061 0.0840724 17.2721 -0.0367658 16.5391 0.00970528C15.8279 0.054663 15.1335 0.245599 14.4992 0.57064C13.8745 0.913328 13.3255 1.37888 12.8851 1.93932C12.4219 2.51616 12.0875 3.18559 11.9043 3.90259C11.7533 4.58461 11.7362 5.28949 11.8539 5.97805C11.8539 6.09585 11.8539 6.11268 11.753 6.09585C7.7571 5.50687 4.47855 4.0877 1.79966 1.04183C1.68197 0.907201 1.62032 0.907201 1.52505 1.04183C0.359337 2.81438 0.925378 5.61905 2.38251 7.00456C2.57867 7.18967 2.78042 7.36917 2.99339 7.53745C2.3253 7.48998 1.67353 7.30877 1.0767 7.00456C0.964609 6.93164 0.902961 6.9709 0.897356 7.10553C0.881469 7.29217 0.881469 7.47982 0.897356 7.66646C1.01429 8.56093 1.36649 9.40826 1.91791 10.1218C2.46934 10.8354 3.20021 11.3895 4.0358 11.7276C4.2395 11.815 4.45174 11.8808 4.66909 11.924C4.05061 12.0458 3.41628 12.0648 2.79163 11.9801C2.65713 11.952 2.60669 12.0249 2.65713 12.1539C3.48097 14.3977 5.26876 15.082 6.58018 15.4635C6.75952 15.4915 6.93886 15.4915 7.14062 15.5364C7.14062 15.5364 7.14062 15.5364 7.10699 15.57C6.72029 16.2768 5.15667 16.7536 4.43932 17.0004C3.12995 17.4712 1.73393 17.6511 0.348129 17.5277C0.129558 17.494 0.079119 17.4996 0.0230754 17.5277C-0.0329683 17.5557 0.0230754 17.6174 0.0847234 17.6735C0.364942 17.8586 0.64516 18.0213 0.936587 18.1784C1.80417 18.652 2.72138 19.0282 3.67152 19.3003C8.59215 20.6577 14.1293 19.6592 17.8225 15.9851C20.7256 13.1019 21.7456 9.12489 21.7456 5.14226C21.7456 4.99081 21.9305 4.90106 22.037 4.82253C22.7715 4.24975 23.419 3.57332 23.9593 2.81438C24.0529 2.70125 24.1009 2.55721 24.0938 2.41051C24.0938 2.32637 24.0938 2.34319 23.9873 2.38807Z" fill="#F3F0F1"/>
</svg>
