<svg width="30" height="30" viewBox="0 0 30 30" fill="none" xmlns="http://www.w3.org/2000/svg">
<path d="M28.9998 9.778V4.122C28.9998 1.896 28.1038 1 25.8778 1H20.2218C17.9958 1 17.0999 1.896 17.0999 4.122V9.778C17.0999 12.004 17.9958 12.9 20.2218 12.9H25.8778C28.1038 12.9 28.9998 12.004 28.9998 9.778ZM12.8999 10.128V3.772C12.8999 1.798 12.0039 1 9.77792 1H4.12197C1.89599 1 1 1.798 1 3.772V10.114C1 12.102 1.89599 12.886 4.12197 12.886H9.77792C12.0039 12.9 12.8999 12.102 12.8999 10.128ZM12.8999 25.878V20.222C12.8999 17.996 12.0039 17.1 9.77792 17.1H4.12197C1.89599 17.1 1 17.996 1 20.222V25.878C1 28.104 1.89599 29 4.12197 29H9.77792C12.0039 29 12.8999 28.104 12.8999 25.878Z" stroke="white" stroke-width="1.49999" stroke-linecap="round" stroke-linejoin="round"/>
<path d="M18.4961 22.698H26.896M22.6961 26.898V18.498" stroke="#7EE48C" stroke-width="1.49999" stroke-linecap="round"/>
</svg>
