<svg width="29" height="20" viewBox="0 0 29 20" fill="none" xmlns="http://www.w3.org/2000/svg">
<path d="M27.8904 3.10436C27.5659 1.88431 26.6058 0.92182 25.3844 0.591953C23.1758 2.15469e-07 14.3146 0 14.3146 0C14.3146 0 5.45794 2.15469e-07 3.2449 0.591953C2.02795 0.917301 1.06791 1.87979 0.738883 3.10436C0.148438 5.31854 0.148438 9.94119 0.148438 9.94119C0.148438 9.94119 0.148438 14.5638 0.738883 16.778C1.0634 17.9981 2.02344 18.9606 3.2449 19.2904C5.45794 19.8824 14.3146 19.8824 14.3146 19.8824C14.3146 19.8824 23.1758 19.8824 25.3844 19.2904C26.6013 18.9651 27.5614 18.0026 27.8904 16.778C28.4808 14.5638 28.4808 9.94119 28.4808 9.94119C28.4808 9.94119 28.4808 5.31854 27.8904 3.10436Z" fill="#F3F0F1"/>
<path d="M11.4841 14.2023L18.8444 9.94119L11.4841 5.68003V14.2023Z" fill="#171717"/>
</svg>
