<svg width="547" height="524" viewBox="0 0 547 524" fill="none" xmlns="http://www.w3.org/2000/svg">
<path d="M1183.87 537.299L1184.1 538.273L1183.87 537.299L355.16 730.835C343.977 733.441 332.055 733.08 321.842 730.39C311.605 727.694 303.227 722.7 298.956 716.176L3.90297 265.174L3.90281 265.173C-0.311806 258.735 0.212602 251.94 4.50729 246.046C8.84403 240.093 17.0704 235.026 28.2667 232.417L28.2672 232.417L856.98 38.8804C868.139 36.2746 880.061 36.6357 890.28 39.3252C900.524 42.0212 908.912 47.0155 913.184 53.5397L1208.24 504.542C1212.45 510.979 1211.92 517.774 1207.62 523.669C1203.28 529.622 1195.06 534.69 1183.87 537.299Z" fill="#000100" stroke="#000100" stroke-width="2"/>
<path d="M1219.96 481.18L1219.96 505.299C1219.93 505.394 1219.91 505.494 1219.91 505.599C1219.91 515.479 1209.93 525.245 1192.7 529.272L363.986 722.807C352.803 725.413 340.881 725.052 330.668 722.363C320.43 719.667 312.053 714.673 307.782 708.149L12.7288 257.146L12.7281 257.145C10.7548 254.137 9.88154 251.069 9.88154 248.038C9.88154 247.934 9.86555 247.833 9.83588 247.739L9.83589 224.097L865.798 30.8547L865.805 30.853C876.965 28.2472 888.887 28.6083 899.106 31.2978C909.35 33.9939 917.738 38.9881 922.009 45.5121L1107.25 328.64C1107.26 328.656 1107.27 328.671 1107.28 328.687L1219.96 481.18Z" fill="#777E87" stroke="#000100" stroke-width="2" stroke-linecap="round" stroke-linejoin="round"/>
<path d="M364.03 722.836L364.03 722.836C354.787 725.002 345.027 725.112 336.156 723.564L336.156 614.169L1165.32 424.125L1220 481.287L1220 504.627L1219.95 504.627L1219.95 505.627C1219.95 515.507 1209.98 525.273 1192.74 529.3L364.03 722.836Z" fill="#C2C8CF" stroke="#000100" stroke-width="2"/>
<path d="M1219.98 481.501L1219.98 505.3C1219.95 505.394 1219.94 505.495 1219.94 505.599C1219.94 515.479 1209.96 525.245 1192.73 529.272L364.014 722.807C352.831 725.413 340.908 725.052 330.695 722.363C320.458 719.667 312.08 714.673 307.809 708.149L12.7562 257.146L12.7555 257.145C10.7822 254.137 9.90881 251.069 9.90881 248.038C9.90881 247.934 9.89285 247.833 9.86323 247.739L9.86323 224.097L865.825 30.8547L865.833 30.853C876.992 28.2472 888.915 28.6083 899.133 31.2978C909.37 33.992 917.754 38.981 922.028 45.4985C922.031 45.5031 922.034 45.5077 922.037 45.5123L1172.21 457.58C1172.31 457.742 1172.45 457.873 1172.62 457.957L1219.98 481.501Z" stroke="#000100" stroke-width="2" stroke-linecap="round" stroke-linejoin="round"/>
<path d="M1192.71 504.532L1192.94 505.506L1192.71 504.532L363.996 698.068C352.813 700.674 340.891 700.313 330.678 697.624C320.441 694.928 312.063 689.934 307.792 683.409L12.7389 232.407L12.7387 232.407C8.52413 225.969 9.04854 219.174 13.3432 213.279C17.68 207.327 25.9063 202.259 37.1026 199.65L37.1031 199.65L865.815 6.11378C876.975 3.50799 888.897 3.86906 899.116 6.55855C909.36 9.2546 917.748 14.2488 922.02 20.7731L1217.07 471.775C1221.29 478.213 1220.76 485.008 1216.46 490.903C1212.12 496.855 1203.89 501.923 1192.71 504.532Z" fill="white" stroke="#000100" stroke-width="2" stroke-linecap="round" stroke-linejoin="round"/>
<path d="M1192.71 504.532L1192.94 505.506L1192.71 504.532L363.996 698.068C352.813 700.674 340.891 700.313 330.678 697.624C320.441 694.928 312.063 689.934 307.792 683.409L12.7389 232.407L12.7387 232.407C8.52413 225.969 9.04854 219.174 13.3432 213.279C17.68 207.327 25.9063 202.259 37.1026 199.65L37.1031 199.65L865.815 6.11378C876.975 3.50799 888.897 3.86906 899.116 6.55855C909.36 9.2546 917.748 14.2488 922.02 20.7731L1217.07 471.775C1221.29 478.213 1220.76 485.008 1216.46 490.903C1212.12 496.855 1203.89 501.923 1192.71 504.532Z" fill="#777E87" stroke="#000100" stroke-width="2" stroke-linecap="round" stroke-linejoin="round"/>
<path d="M629.158 615.655L629.158 615.655C625.536 616.501 621.665 616.382 618.357 615.511C615.023 614.633 612.405 613.032 611.11 611.052L512.631 460.508C512.631 460.507 512.631 460.507 512.631 460.507C511.39 458.6 511.535 456.631 512.813 454.872C514.134 453.054 516.709 451.428 520.345 450.577C520.345 450.577 520.345 450.577 520.345 450.577L796.97 385.987L796.971 385.987C800.592 385.14 804.463 385.259 807.772 386.13C811.105 387.009 813.723 388.609 815.018 390.589L815.855 390.041L815.018 390.589L913.497 541.133C913.498 541.134 913.498 541.134 913.498 541.135C914.737 543.04 914.589 545.008 913.307 546.769C911.983 548.587 909.407 550.214 905.782 551.064L629.158 615.655Z" fill="#777E87" stroke="#000100" stroke-width="2" stroke-linecap="round" stroke-linejoin="round"/>
<path d="M866.123 6.04645L865.833 6.11398L37.1211 199.65L37.1206 199.65C25.9244 202.259 17.7038 207.327 13.3699 213.279C9.07797 219.174 8.55333 225.969 12.7569 232.407L866.123 6.04645ZM866.123 6.04645L866.144 6.02381C877.232 3.4909 889.037 3.86879 899.165 6.5351C909.406 9.23108 917.789 14.2252 922.06 20.7493L991.321 126.626L1116.66 422.042C1119.75 429.343 1119.17 436.22 1115.18 441.917C1111.15 447.659 1103.56 452.345 1092.38 454.956L282.157 644.178L12.7573 232.408L866.123 6.04645Z" fill="#000100" stroke="#000100" stroke-width="2"/>
<mask id="path-9-inside-1_3322_1713" fill="white">
<path d="M585.852 574.3L511.752 461.053C508.787 456.497 512.505 451.374 520.077 449.604L796.702 385.013C804.274 383.242 812.849 385.509 815.814 390.041L890.028 503.264"/>
</mask>
<path d="M584.178 575.395C584.783 576.319 586.023 576.578 586.947 575.973C587.871 575.368 588.13 574.129 587.526 573.204L584.178 575.395ZM511.752 461.053L510.076 462.144L510.079 462.148L511.752 461.053ZM520.077 449.604L519.622 447.656L519.621 447.656L520.077 449.604ZM796.702 385.013L797.157 386.96L797.157 386.96L796.702 385.013ZM815.814 390.041L814.141 391.136L814.142 391.138L815.814 390.041ZM888.355 504.36C888.961 505.284 890.2 505.542 891.124 504.937C892.048 504.331 892.306 503.091 891.701 502.168L888.355 504.36ZM587.526 573.204L513.426 459.958L510.079 462.148L584.178 575.395L587.526 573.204ZM513.429 459.962C512.429 458.426 512.529 456.907 513.581 455.459C514.717 453.896 517.046 452.366 520.532 451.551L519.621 447.656C515.536 448.611 512.22 450.528 510.345 453.108C508.387 455.803 508.111 459.124 510.076 462.144L513.429 459.962ZM520.532 451.551L797.157 386.96L796.247 383.065L519.622 447.656L520.532 451.551ZM797.157 386.96C800.615 386.152 804.32 386.266 807.476 387.097C810.682 387.942 813.033 389.443 814.141 391.136L817.488 388.946C815.63 386.106 812.211 384.208 808.495 383.229C804.729 382.237 800.361 382.103 796.247 383.065L797.157 386.96ZM814.142 391.138L888.355 504.36L891.701 502.168L817.487 388.945L814.142 391.138Z" fill="#000100" mask="url(#path-9-inside-1_3322_1713)"/>
<path d="M354.469 508.286L1192.39 312.602C1202.24 310.297 1207.79 305.443 1209.21 299.745C1210.63 294.037 1208.04 286.993 1200.5 280.032L928.981 29.6489L929.659 28.9138L928.981 29.6487C921.455 22.7042 910.53 17.2907 898.967 14.1984C887.404 11.1059 875.312 10.364 865.479 12.6539L354.469 508.286ZM354.469 508.286C344.637 510.577 332.544 509.835 320.981 506.742C309.418 503.65 298.493 498.236 290.968 491.292L290.967 491.292L19.4513 240.908C19.4512 240.908 19.4511 240.908 19.451 240.908C11.9089 233.948 9.31512 226.903 10.7376 221.196C12.1575 215.498 17.7033 210.644 27.5531 208.338C27.5533 208.338 27.5535 208.338 27.5536 208.338L865.479 12.6541L354.469 508.286Z" fill="white" stroke="#000100" stroke-width="2" stroke-linecap="round" stroke-linejoin="round"/>
<path d="M354.469 497.969L1192.39 302.285C1202.24 299.979 1207.79 295.125 1209.21 289.428C1210.63 283.72 1208.04 276.675 1200.5 269.715L928.981 19.3315L929.659 18.5964L928.981 19.3313C921.455 12.3868 910.53 6.97333 898.967 3.88101C887.404 0.788527 875.312 0.0466345 865.479 2.33654L354.469 497.969ZM354.469 497.969C344.637 500.259 332.544 499.517 320.981 496.425C309.418 493.332 298.493 487.919 290.968 480.974L290.967 480.974L19.4513 230.591C11.909 223.63 9.3151 216.586 10.7376 210.878C12.1575 205.181 17.7033 200.327 27.5531 198.021C27.5533 198.021 27.5535 198.021 27.5536 198.021L865.479 2.33667L354.469 497.969Z" fill="white" stroke="#000100" stroke-width="2" stroke-linecap="round" stroke-linejoin="round"/>
<path d="M355.957 169.214C320.403 172.66 288.911 182.918 266.739 196.669C244.506 210.457 231.923 227.559 233.469 244.648C235.015 261.736 250.447 276.123 274.766 285.399C299.02 294.65 331.804 298.676 367.357 295.23C402.911 291.783 434.403 281.526 456.576 267.775C478.808 253.987 491.391 236.884 489.845 219.796C488.299 202.707 472.867 188.32 448.548 179.045C424.294 169.794 391.51 165.767 355.957 169.214Z" fill="#7EE48C" stroke="#000100" stroke-width="2"/>
<path d="M423.763 231.178L413.782 238.283L430.551 245.197L440.532 238.092L423.763 231.178Z" fill="#000100" stroke="#000100" stroke-width="2"/>
<path d="M392.892 231.843L382.911 238.948L399.68 245.862L409.661 238.757L392.892 231.843Z" fill="#000100" stroke="#000100" stroke-width="2"/>
<path d="M359.863 255.354L349.884 262.458L366.65 269.35L376.63 262.245L359.863 255.354Z" fill="#000100" stroke="#000100" stroke-width="2"/>
<path d="M329.015 256.016L319.036 263.12L335.803 270.012L345.781 262.929L329.015 256.016Z" fill="#000100" stroke="#000100" stroke-width="2"/>
<path d="M310.075 248.228L300.077 255.312L316.863 262.224L326.843 255.12L310.075 248.228Z" fill="#000100" stroke="#000100" stroke-width="2"/>
<path d="M291.082 240.414L281.103 247.518L297.871 254.411L307.869 247.327L291.082 240.414Z" fill="#000100" stroke="#000100" stroke-width="2"/>
<path d="M346.876 199.546L336.898 206.629L353.664 213.542L363.643 206.438L346.876 199.546Z" fill="#000100" stroke="#000100" stroke-width="2"/>
<path d="M327.925 191.733L317.946 198.837L334.713 205.729L344.691 198.645L327.925 191.733Z" fill="#000100" stroke="#000100" stroke-width="2"/>
<path d="M404.81 223.39L394.832 230.474L411.598 237.386L421.577 230.283L404.81 223.39Z" fill="#000100" stroke="#000100" stroke-width="2"/>
<path d="M316.012 200.21L306.032 207.314L322.799 214.206L332.778 207.102L316.012 200.21Z" fill="#000100" stroke="#000100" stroke-width="2"/>
</svg>
