<svg width="1300" height="491" viewBox="0 0 1300 491" fill="none" xmlns="http://www.w3.org/2000/svg">
<path fill-rule="evenodd" clip-rule="evenodd" d="M20 0C8.95431 0 1.90735e-06 8.95427 1.90735e-06 20L1.90735e-06 251.633L4.92221e-06 217.147C14.6518 217.147 26.5294 229.751 26.5294 245.299C26.5294 260.847 14.6518 273.451 0 273.451L1.90735e-06 470.599C1.90735e-06 481.645 8.95434 490.599 20 490.599L1279.6 490.599C1290.64 490.599 1299.6 481.645 1299.6 470.599V16C1299.6 7.16345 1292.44 9.48418e-06 1283.6 9.41933e-06L20 0ZM1299.6 273.451C1284.95 273.451 1273.07 260.847 1273.07 245.299C1273.07 229.751 1284.95 217.147 1299.6 217.147V273.451Z" fill="#141414"/>
</svg>
