<svg width="229" height="234" viewBox="0 0 229 234" fill="none" xmlns="http://www.w3.org/2000/svg">
<path d="M148.848 85.3806C148.285 84.3973 147.244 83.6856 145.855 83.4896L138.734 82.4852C136.001 82.1247 132.951 83.9039 131.951 86.4493L91.5009 188.579C90.4882 191.123 87.4388 192.902 84.7087 192.517L60.5719 189.175C59.1822 188.979 58.1416 188.267 57.5785 187.284L72.756 214.018C73.3191 215.001 74.3597 215.713 75.7494 215.909L99.8863 219.251C102.616 219.636 105.678 217.858 106.678 215.313L147.129 113.183C148.141 110.639 151.192 108.848 153.91 109.231L161.031 110.235C162.424 110.407 163.464 111.118 164.026 112.114L148.848 85.3806Z" fill="#7EE48C" stroke="#7EE48C" stroke-miterlimit="10"/>
<path d="M172.192 46.1393L157.016 19.407C157.558 20.3621 157.649 21.5801 157.146 22.8272L152.673 34.1217L167.85 60.854L172.322 49.5595C172.813 48.3106 172.734 47.0945 172.192 46.1393Z" fill="#F0F3F3" stroke="#7EE48C" stroke-miterlimit="10"/>
<path d="M97.7262 78.2817C97.163 77.2982 96.1221 76.5864 94.7444 76.3921L87.6224 75.3875C84.8882 75.0269 81.8258 76.8048 80.8252 79.3507L78.1877 86.0102C77.1888 88.5438 74.1387 90.3234 71.4063 89.9505L64.2843 88.9459C61.5501 88.5854 58.4877 90.3634 57.487 92.9093L54.8531 99.5441C53.8401 102.088 50.7883 103.88 48.0699 103.497L40.9478 102.492C38.2136 102.132 35.1513 103.91 34.1524 106.443L31.5149 113.103C30.5019 115.647 27.4501 117.439 24.7317 117.055L17.6097 116.051C16.2285 115.881 15.1877 115.169 14.6244 114.186L29.8055 140.925C30.3687 141.908 31.3973 142.618 32.7872 142.814L39.9093 143.819C42.6435 144.18 45.6935 142.4 46.6959 139.842L49.3334 133.182C50.3323 130.649 53.3947 128.871 56.1272 129.244L63.2492 130.248C65.9834 130.609 69.0335 128.829 70.0358 126.271L72.6698 119.636C73.6828 117.092 76.7469 115.302 79.4653 115.685L86.5873 116.69C89.3215 117.05 92.3716 115.271 93.3705 112.737L96.008 106.078C97.021 103.533 100.083 101.755 102.803 102.127L109.925 103.131C111.307 103.301 112.347 104.013 112.911 104.996L97.7297 78.2572L97.7262 78.2817Z" fill="#7EE48C" stroke="#7EE48C" stroke-miterlimit="10"/>
<path d="M183.063 67.8475C183.553 66.5986 183.475 65.3825 182.933 64.4273L167.757 37.695C168.299 38.6502 168.39 39.8681 167.887 41.1153L165.25 47.773C164.758 49.0342 164.838 50.2381 165.38 51.1932L180.556 77.9255C180.014 76.9704 179.924 75.7524 180.428 74.493L183.063 67.8475Z" fill="#F0F3F3" stroke="#7EE48C" stroke-miterlimit="10"/>
<path d="M193.799 86.1186C194.292 84.8574 194.213 83.6412 193.659 82.6843L178.483 55.9521C179.025 56.9072 179.116 58.1251 178.623 59.3863L175.987 66.0441C175.495 67.3053 175.575 68.5091 176.117 69.4643L191.293 96.1966C190.751 95.2414 190.66 94.0235 191.163 92.7763L193.799 86.1186Z" fill="#F0F3F3" stroke="#7EE48C" stroke-miterlimit="10"/>
<path d="M204.524 104.391C205.029 103.131 204.938 101.913 204.386 100.944L189.21 74.2118C189.751 75.167 189.841 76.3973 189.348 77.6584L186.712 84.3162C186.221 85.5651 186.3 86.7813 186.842 87.7364L202.018 114.469C201.476 113.513 201.385 112.296 201.888 111.048L204.524 104.391Z" fill="#F0F3F3" stroke="#7EE48C" stroke-miterlimit="10"/>
<path d="M159.589 103.681C159.026 102.697 157.985 101.986 156.595 101.79L149.473 100.785C148.092 100.615 147.051 99.9034 146.488 98.9199L161.669 125.658C162.232 126.642 163.273 127.353 164.651 127.548L171.773 128.552C173.166 128.724 174.207 129.436 174.768 130.431L159.588 103.693L159.589 103.681Z" fill="#7EE48C" stroke="#7EE48C" stroke-miterlimit="10"/>
<path d="M170.317 121.952C169.754 120.968 168.713 120.256 167.336 120.062L160.214 119.057C158.833 118.888 157.792 118.176 157.229 117.192L172.409 143.931C172.972 144.914 174.001 145.624 175.391 145.82L182.513 146.825C183.894 146.995 184.935 147.706 185.498 148.69L170.317 121.952Z" fill="#7EE48C" stroke="#7EE48C" stroke-miterlimit="10"/>
<path d="M215.133 119.22L199.956 92.4874C200.498 93.4426 200.587 94.6728 200.095 95.934L184.86 134.408C183.847 136.951 180.796 138.743 178.078 138.36L170.958 137.355C169.565 137.184 168.525 136.472 167.963 135.476L183.14 162.209C183.703 163.193 184.744 163.904 186.133 164.1L193.254 165.105C195.987 165.465 199.036 163.686 200.038 161.128L215.274 122.655C215.778 121.395 215.688 120.177 215.135 119.208L215.133 119.22Z" fill="#F0F3F3" stroke="#7EE48C" stroke-miterlimit="10"/>
<path d="M181.57 137.735C180.467 138.258 179.251 138.513 178.083 138.349L170.961 137.344C169.567 137.173 168.526 136.461 167.965 135.465L183.146 162.204C183.709 163.187 184.75 163.899 186.14 164.095L193.262 165.1C194.385 165.233 195.544 165.02 196.603 164.541L181.57 137.735Z" fill="#7EE48C" stroke="#7EE48C" stroke-miterlimit="10"/>
<path d="M154.016 17.4792C156.746 17.8643 158.152 20.2473 157.152 22.7929L154.497 29.4869C153.498 32.0202 154.881 34.3874 157.575 34.7673L164.746 35.7788C167.48 36.1393 168.886 38.5222 167.883 41.0802L165.246 47.739C164.233 50.2829 165.638 52.6782 168.37 53.051L175.491 54.0555C178.225 54.416 179.63 56.8113 178.615 59.3675L175.978 66.0263C174.965 68.5702 176.369 70.9654 179.102 71.3383L186.223 72.3428C188.957 72.7033 190.349 75.0968 189.335 77.6531L186.697 84.3119C185.684 86.8559 187.101 89.2528 189.833 89.6257L196.955 90.6302C199.689 90.9907 201.081 93.3841 200.066 95.9404L184.828 134.419C183.815 136.963 180.764 138.755 178.045 138.371L170.924 137.367C168.19 137.006 166.786 134.611 167.8 132.055L170.437 125.396C171.436 122.863 170.046 120.457 167.314 120.084L160.192 119.08C157.458 118.719 156.066 116.326 157.081 113.769L159.714 107.135C160.727 104.591 159.312 102.182 156.592 101.811L149.471 100.806C146.737 100.446 145.345 98.0523 146.345 95.5066L148.983 88.8478C149.996 86.3039 148.581 83.8946 145.861 83.5235L138.739 82.519C136.005 82.1585 132.955 83.938 131.955 86.4837L91.4987 188.625C90.4858 191.169 87.436 192.948 84.7055 192.563L60.5649 189.221C57.8344 188.836 56.4283 186.453 57.4289 183.907L97.8851 81.7658C98.898 79.2219 97.483 76.8127 94.7753 76.4433L87.6539 75.4388C84.9199 75.0782 81.8578 76.856 80.8572 79.4016L78.22 86.0604C77.2211 88.5938 74.1696 90.3856 71.4391 90.0005L64.3176 88.9959C61.5836 88.6354 58.5215 90.4132 57.5209 92.9588L54.8871 99.593C53.8743 102.137 50.8227 103.929 48.1045 103.545L40.983 102.541C38.249 102.18 35.1869 103.958 34.1881 106.491L31.5509 113.15C30.538 115.694 27.4864 117.486 24.7682 117.103L17.6468 116.098C14.9128 115.738 13.5207 113.344 14.5353 110.788L29.7736 72.3091C30.7865 69.7652 33.838 67.9733 36.5562 68.3567L43.6777 69.3612C46.4117 69.7218 49.4475 67.9529 50.4603 65.409L53.0976 58.7501C54.1105 56.2062 57.1743 54.4161 59.8925 54.7996L67.014 55.8041C69.748 56.1646 72.7838 54.3956 73.7966 51.8517L76.4339 45.1929C77.4468 42.649 80.5106 40.859 83.2288 41.2424L90.3503 42.2469C93.0843 42.6074 96.1201 40.8385 97.1329 38.2946L99.7702 31.6357C100.783 29.0918 103.833 27.3123 106.563 27.6975L113.685 28.702C116.407 29.0608 119.469 27.283 120.469 24.7374L123.107 18.0785C124.119 15.5346 127.169 13.7551 129.9 14.1403L154.04 17.4826L154.016 17.4792Z" fill="#F0F3F3" stroke="#7EE48C" stroke-miterlimit="10"/>
</svg>
