<svg width="190" height="227" viewBox="0 0 190 227" fill="none" xmlns="http://www.w3.org/2000/svg">
<path d="M74.1547 33.6002L69.9464 29.6825C69.3975 29.1767 68.7948 28.9291 68.1814 28.9184L29.0586 28.208C29.6613 28.2188 30.2748 28.4663 30.8237 28.9722L35.0319 32.8898C35.5808 33.3957 36.1836 33.6432 36.797 33.654L75.9198 34.3643C75.3171 34.3536 74.7036 34.106 74.1547 33.6002Z" fill="#F0F3F3" stroke="#7EE48C" stroke-linecap="round" stroke-linejoin="round"/>
<path d="M97.0042 12.3326L92.796 8.40418C92.2579 7.89833 91.6444 7.65079 91.0525 7.64003L51.9297 6.92969C52.5324 6.94045 53.1351 7.18799 53.6733 7.69384L57.8815 11.6223C58.4197 12.1281 59.0332 12.3757 59.6359 12.3864L98.7586 13.0968C98.1559 13.0968 97.5532 12.8385 97.0042 12.3326Z" fill="#F0F3F3" stroke="#7EE48C" stroke-linecap="round" stroke-linejoin="round"/>
<path d="M104.104 211.262L64.9816 210.551C63.7977 210.53 62.6245 211.423 61.9465 213.037L59.2773 219.441C58.5992 221.066 57.4261 221.949 56.2422 221.927L95.3649 222.638C96.5488 222.659 97.722 221.766 98.4 220.152L101.069 213.748C101.747 212.123 102.92 211.24 104.104 211.262Z" fill="#7EE48C" stroke="#7EE48C" stroke-linecap="round" stroke-linejoin="round"/>
<path d="M130.624 214.707L91.5011 213.996C90.3172 213.975 89.144 214.868 88.466 216.483L85.7968 222.887C85.1188 224.512 83.9456 225.394 82.7617 225.373L121.884 226.083C123.068 226.105 124.241 225.211 124.92 223.597L127.589 217.193C128.267 215.568 129.44 214.685 130.624 214.707Z" fill="#7EE48C" stroke="#7EE48C" stroke-linecap="round" stroke-linejoin="round"/>
<path d="M123.539 15.7881L109.246 2.47451C108.708 1.96865 108.095 1.72111 107.492 1.71035L68.3691 1C68.9719 1.01076 69.5746 1.25831 70.1235 1.76416L84.4164 15.0777C84.9546 15.5836 85.5573 15.8311 86.16 15.8419L125.283 16.5522C124.68 16.5415 124.077 16.2939 123.539 15.7881Z" fill="#F0F3F3" stroke="#7EE48C" stroke-linecap="round" stroke-linejoin="round"/>
<path d="M153.474 193.438L114.351 192.728C113.167 192.706 111.994 193.6 111.316 195.214L102.265 216.944C101.587 218.58 100.403 219.473 99.2188 219.452L138.342 220.162C139.525 220.184 140.699 219.29 141.387 217.655L150.439 195.924C151.117 194.299 152.29 193.417 153.474 193.438Z" fill="#7EE48C" stroke="#7EE48C" stroke-linecap="round" stroke-linejoin="round"/>
<path d="M145.836 136.116C147.45 137.612 147.924 140.852 146.912 143.295L125.096 195.677C124.074 198.142 121.921 198.917 120.307 197.421L116.098 193.492C114.484 191.996 112.331 192.771 111.32 195.214L102.268 216.945C101.246 219.409 99.0824 220.184 97.4787 218.688L93.2705 214.76C91.6561 213.253 89.4927 214.028 88.481 216.482L85.8119 222.886C84.7894 225.34 82.6368 226.114 81.0332 224.608L66.751 211.305C65.1365 209.809 62.984 210.584 61.9615 213.027L59.2923 219.431C58.2699 221.874 56.1173 222.66 54.5029 221.153L20.0727 189.08C18.4583 187.584 17.9848 184.344 18.9965 181.901L21.6656 175.497C22.6881 173.054 22.2038 169.814 20.5893 168.318L6.29636 155.005C4.68194 153.509 4.20837 150.269 5.22008 147.826L7.88926 141.422C8.91172 138.979 8.4274 135.739 6.81298 134.243L2.60473 130.315C0.990309 128.819 0.516757 125.579 1.53922 123.115L10.5907 101.384C11.6132 98.9413 11.1289 95.7017 9.51445 94.1949L5.3062 90.2773C3.69178 88.7705 3.20745 85.5309 4.22992 83.077L26.0461 30.6945C27.0685 28.2513 29.2211 27.4656 30.8355 28.9724L35.0438 32.8901C36.6582 34.3968 38.8215 33.6219 39.8332 31.168L48.8847 9.43794C49.9072 6.97326 52.0597 6.19834 53.6741 7.69437L57.8824 11.6228C59.4968 13.1188 61.6494 12.3439 62.6719 9.90074L65.341 3.49688C66.3635 1.05372 68.5161 0.268041 70.1197 1.77483L84.4127 15.0884C86.0271 16.5844 88.1796 15.8095 89.2021 13.3448L91.8606 6.95173C92.883 4.48705 95.0355 3.71214 96.6499 5.20816L131.08 37.2813C132.695 38.7881 133.179 42.0277 132.156 44.4816L129.498 50.8747C128.476 53.3394 128.96 56.5682 130.563 58.075L144.846 71.3778C146.46 72.8738 146.934 76.1134 145.922 78.5566L143.253 84.9604C142.23 87.4036 142.715 90.6432 144.34 92.15L148.548 96.0784C150.163 97.5744 150.636 100.814 149.614 103.279L140.562 125.009C139.54 127.452 140.024 130.692 141.638 132.188L145.847 136.116H145.836Z" fill="#F0F3F3" stroke="#7EE48C" stroke-linecap="round" stroke-linejoin="round"/>
<path d="M81.7129 55.1046C83.3273 56.6006 83.8009 59.8402 82.7891 62.2834L78.2688 73.143L71.8865 88.4585L67.3661 99.3182C66.3437 101.783 64.1911 102.558 62.5767 101.062L58.3684 97.1333C56.754 95.6373 56.2804 92.3977 57.3029 89.933L61.8233 79.0733L68.2056 63.7579L72.726 52.8982C73.7484 50.4551 75.901 49.6694 77.5154 51.1762L81.7236 55.1046H81.7129Z" fill="#7EE48C"/>
<path d="M111.924 83.2599C113.538 84.7667 114.022 88.0063 113.011 90.4494L108.49 101.309L102.108 116.625L97.5876 127.484C96.5652 129.949 94.4126 130.724 92.7875 129.217L88.5792 125.299C86.9648 123.793 86.4804 120.553 87.5029 118.099L92.0233 107.239L98.4056 91.9239L102.926 81.0643C103.948 78.6211 106.101 77.8354 107.715 79.3422L111.924 83.2599Z" fill="#7EE48C"/>
<path d="M46.1231 107.014C47.7375 108.51 48.211 111.75 47.1886 114.214L42.6682 125.074L35.5325 118.423C33.918 116.927 33.4445 113.687 34.467 111.222L37.1253 104.829C38.1478 102.364 40.3004 101.59 41.9148 103.086L46.1231 107.014Z" fill="#7EE48C"/>
<path d="M82.9482 162.614L78.4278 173.473C77.4053 175.917 75.2527 176.702 73.6383 175.196L66.5026 168.544L56.4286 159.159L46.3547 149.774L39.2189 143.122C37.6045 141.626 37.131 138.387 38.1427 135.944L42.663 125.084L52.737 134.469L62.811 143.854L72.885 153.239L82.9589 162.625L82.9482 162.614Z" fill="#7EE48C"/>
<path d="M96.477 153.94C98.0915 155.436 98.565 158.675 97.5426 161.14L94.8842 167.533C93.8617 169.998 91.7091 170.773 90.0947 169.277L82.959 162.625L87.4794 151.766C88.5018 149.301 90.6544 148.526 92.2688 150.022L96.477 153.951V153.94Z" fill="#7EE48C"/>
<path d="M186.045 144.006C187.067 141.563 186.583 138.324 184.968 136.828L180.76 132.899C179.146 131.403 178.672 128.164 179.684 125.72L188.735 103.99C189.758 101.526 189.273 98.2968 187.67 96.79L183.461 92.8616C181.847 91.3548 181.363 88.1152 182.374 85.6721L185.044 79.2682C186.066 76.8251 185.582 73.5855 183.967 72.0894L169.685 58.7866C168.071 57.2906 167.597 54.051 168.62 51.5863L171.289 45.1932C172.311 42.7285 171.827 39.4997 170.213 37.9929L135.782 5.91982C135.244 5.41397 134.631 5.16642 134.039 5.15566L94.916 4.44531C95.5187 4.45608 96.1214 4.70363 96.6596 5.20948L131.09 37.2826C132.704 38.7894 133.188 42.029 132.166 44.4829L129.497 50.876C128.474 53.3407 128.959 56.5695 130.562 58.0763L144.845 71.3791C146.459 72.8751 146.933 76.1147 145.921 78.5579L143.252 84.9617C142.229 87.4049 142.714 90.6445 144.339 92.1513L148.547 96.0797C150.161 97.5757 150.635 100.815 149.613 103.28L140.561 125.01C139.539 127.453 140.023 130.693 141.637 132.189L145.846 136.117C147.46 137.613 147.934 140.853 146.922 143.296L125.106 195.679C124.428 197.314 123.244 198.208 122.06 198.186L161.183 198.897C162.366 198.918 163.54 198.025 164.228 196.4L186.045 144.017V144.006Z" fill="#F0F3F3" stroke="#7EE48C" stroke-linecap="round" stroke-linejoin="round"/>
<path d="M122.066 198.186C123.25 198.208 124.423 197.314 125.112 195.678L146.928 143.296L186.051 144.006L164.235 196.389C163.557 198.025 162.384 198.907 161.189 198.886L122.066 198.175V198.186Z" fill="#7EE48C" stroke="#7EE48C" stroke-linecap="round" stroke-linejoin="round"/>
<path d="M169.684 58.7852C168.069 57.2892 167.596 54.0496 168.618 51.5849L171.287 45.1918L132.165 44.4814L129.496 50.8745C128.473 53.3392 128.957 56.5681 130.561 58.0748L169.684 58.7852Z" fill="#7EE48C" stroke="#7EE48C" stroke-linecap="round" stroke-linejoin="round"/>
<path d="M183.454 92.8711C181.84 91.3643 181.356 88.1247 182.367 85.6816L185.036 79.2777L145.914 78.5674L143.245 84.9712C142.222 87.4144 142.706 90.654 144.332 92.1608L183.454 92.8711Z" fill="#7EE48C" stroke="#7EE48C" stroke-linecap="round" stroke-linejoin="round"/>
<path d="M180.753 132.898C179.138 131.401 178.665 128.162 179.676 125.719L188.728 103.989L149.605 103.278L140.554 125.008C139.531 127.452 140.016 130.691 141.63 132.187L180.753 132.898Z" fill="#7EE48C" stroke="#7EE48C" stroke-linecap="round" stroke-linejoin="round"/>
</svg>
